PathFileType	4	(x/y/z)	S08_M20_T04
DataRate	CameraRate	NumFrames	NumMarkers	Units	OrigDataRate	OrigDataStartFrame	OrigNumFrames
240	240	10	51	mm	240	232	463
Frame#	Time	Sternum			R.Acromium			L.Acromium			Top.Head			R.ASIS			L.ASIS			R.PSIS			L.PSIS			R.Great.Tro			L.Great.Tro			R.Iliac.Crest			L.Iliac.Crest			V.Sacral			R.Thigh.Upper.Post			R.Thigh.Lower.Ant			R.Thigh.Lower.Post			R.Thigh.Upper.Ant			R.Knee.Lat			R.Knee.Med			R.Shank.Upper.Post			R.Shank.Lower.Ant			R.Shank.Lower.Post			R.Shank.Upper.Ant			R.Ankle.Lat			R.Ankle.Med			R.Heel.Upper			R.Heel.Med			R.Heel.Lat			R.Toe.Lat			R.Toe.Med			R.Toe.Tip			L.Thigh.Upper.Post			L.Thigh.Lower.Ant			L.Thigh.Lower.Post			L.Thigh.Upper.Ant			L.Knee.Lat			L.Knee.Med			L.Shank.Upper.Post			L.Shank.Lower.Ant			L.Shank.Lower.Post			L.Shank.Upper.Ant			L.Ankle.Lat			L.Ankle.Med			L.Heel.Upper			L.Heel.Med			L.Heel.Lat			L.Toe.Lat			L.Toe.Med			L.Toe.Tip			Cervical.Spine			Back			
		X1	Y1	Z1	X2	Y2	Z2	X3	Y3	Z3	X4	Y4	Z4	X5	Y5	Z5	X6	Y6	Z6	X7	Y7	Z7	X8	Y8	Z8	X9	Y9	Z9	X10	Y10	Z10	X11	Y11	Z11	X12	Y12	Z12	X13	Y13	Z13	X14	Y14	Z14	X15	Y15	Z15	X16	Y16	Z16	X17	Y17	Z17	X18	Y18	Z18	X19	Y19	Z19	X20	Y20	Z20	X21	Y21	Z21	X22	Y22	Z22	X23	Y23	Z23	X24	Y24	Z24	X25	Y25	Z25	X26	Y26	Z26	X27	Y27	Z27	X28	Y28	Z28	X29	Y29	Z29	X30	Y30	Z30	X31	Y31	Z31	X32	Y32	Z32	X33	Y33	Z33	X34	Y34	Z34	X35	Y35	Z35	X36	Y36	Z36	X37	Y37	Z37	X38	Y38	Z38	X39	Y39	Z39	X40	Y40	Z40	X41	Y41	Z41	X42	Y42	Z42	X43	Y43	Z43	X44	Y44	Z44	X45	Y45	Z45	X46	Y46	Z46	X47	Y47	Z47	X48	Y48	Z48	X49	Y49	Z49	X50	Y50	Z50	X51	Y51	Z51	

232	0.9625	-209.4	1235.5	352.42	-313.1	1465.1	538.74	-351.28	1497.2	205.61	-311.49	1787.6	392.53	-217.46	1024.6	469.22	-223.91	1019.8	238.21	-422.46	1042.2	397.19	-420.54	1042.1	303.76	-282.11	914.39	542.1	-305.09	906.88	173.8	-314.05	1091.7	515.42	-323.48	1097.2	207.34	-437.43	1000.7	351.1	-307.92	711.08	518.43	-234.82	613.64	473.98	-304.15	622.87	494.9	-230.61	705.51	499.44	-275.8	517.07	463.52	-309.87	527.26	340.88	-366	340.67	466.27	-314.06	272.74	438.37	-377.1	265.24	454.1	-303.05	349.11	451.59	-403.09	102.47	409.11	-376.54	117.89	331.49	-455.06	68.265	359.62	-443.68	41.789	332.99	-450.98	45.178	394.52	NaN	NaN	NaN	-255.7	43.329	322.77	-190.96	55.894	372.07	-226.26	703.98	179.9	-109.65	656.93	194.53	-173.54	629.79	192.66	-158.49	730.35	176.15	-128.98	550.05	206.92	-113.83	542.34	333.07	-253.48	426.11	202.25	-237.16	316.15	212.98	-291.19	363.22	214.37	-203.35	384.13	201.88	-358.36	202.98	217.11	-330.8	192.24	300.13	-417.09	200.98	270.51	-419.07	163.22	298.68	-425.85	175.81	235.66	-278.99	87.246	187.04	-251.59	74.911	297.97	-190.73	66.486	244.54	-397.56	1525.4	373.69	-443.23	1241.4	379.45
233	0.96667	-204.42	1235.4	352.61	-307.91	1465.1	538.83	-346.17	1497.2	205.69	-306.13	1787.6	392.53	-212.96	1024.5	469.63	-218.81	1020	238.58	-417.72	1042.2	396.92	-415.61	1042.1	303.49	-278.28	914.32	542.18	-299.5	907.18	173.76	-309.7	1091.6	515.5	-318.37	1097.4	207.4	-432.58	1000.8	350.77	-305.58	711.34	518.47	-233.11	613.36	474.24	-302.35	623.11	495.01	-228.22	705.2	499.81	-274.75	516.99	463.8	-308.28	527.32	340.98	-365.51	340.87	466.36	-313.69	272.86	438.62	-376.8	265.48	454.18	-302.52	349.16	451.83	-403.04	102.73	409.14	-376.2	118.08	331.46	-455	68.381	359.52	-443.57	41.891	332.95	-450.92	45.298	394.42	NaN	NaN	NaN	-255.64	43.352	322.76	-190.87	55.774	372.15	-219.47	704.68	180.09	-102.57	658.39	195	-166.28	630.87	192.96	-151.86	731.5	176.47	-121.07	551.26	207.36	-106.28	543.77	333.43	-243.19	424.44	202.21	-224.48	314.83	213.11	-279.54	360.72	214.3	-192.15	383.54	202.06	-343.22	198.88	216.87	-315.49	188.81	299.97	-402.04	195.42	270.11	-403.11	157.62	298.32	-410.04	169.92	235.31	-260.81	85.198	187.06	-233.32	73.676	298.09	-172.14	66.763	244.78	-392.32	1525.4	373.78	-438.27	1241.5	379.58
234	0.97083	-199.44	1235.3	352.8	-302.73	1465	538.91	-341.05	1497.1	205.76	-300.78	1787.6	392.51	-208.45	1024.3	470.04	-213.71	1020.1	238.94	-412.97	1042.1	396.64	-410.66	1042.1	303.22	-274.43	914.22	542.24	-293.93	907.43	173.72	-305.34	1091.5	515.57	-313.25	1097.5	207.45	-427.73	1000.7	350.44	-303.23	711.59	518.51	-231.38	613.08	474.48	-300.53	623.33	495.12	-225.83	704.89	500.17	-273.69	516.9	464.08	-306.69	527.37	341.07	-365.02	341.06	466.44	-313.32	272.98	438.87	-376.48	265.72	454.25	-301.98	349.2	452.06	-402.98	102.98	409.17	-375.83	118.28	331.44	-454.95	68.51	359.41	-443.45	41.988	332.9	-450.86	45.415	394.32	NaN	NaN	NaN	-255.58	43.378	322.75	-190.78	55.656	372.23	-212.78	705.31	180.3	-95.608	659.75	195.47	-159.15	631.86	193.27	-145.33	732.55	176.8	-113.28	552.38	207.81	-98.858	545.11	333.8	-232.92	422.69	202.19	-211.8	313.51	213.26	-267.88	358.18	214.25	-180.99	382.92	202.25	-327.99	194.8	216.64	-300.09	185.4	299.84	-386.85	189.87	269.73	-386.99	152.04	298	-394.09	164.05	235	-242.59	83.238	187.12	-215.01	72.55	298.24	-153.56	67.16	245.05	-387.08	1525.4	373.85	-433.31	1241.6	379.69
235	0.975	-194.46	1235.1	352.99	-297.56	1465	538.98	-335.91	1497.1	205.82	-295.42	1787.5	392.49	-203.94	1024.1	470.43	-208.6	1020.2	239.29	-408.21	1042	396.35	-405.7	1042.1	302.94	-270.58	914.09	542.3	-288.36	907.62	173.67	-300.97	1091.3	515.64	-308.12	1097.6	207.49	-422.87	1000.7	350.1	-300.86	711.83	518.56	-229.64	612.79	474.71	-298.68	623.53	495.22	-223.43	704.56	500.51	-272.61	516.81	464.35	-305.1	527.41	341.17	-364.52	341.26	466.51	-312.95	273.1	439.11	-376.14	265.95	454.33	-301.44	349.23	452.29	-402.91	103.24	409.18	-375.43	118.48	331.42	-454.92	68.651	359.29	-443.32	42.083	332.85	-450.8	45.531	394.22	NaN	NaN	NaN	-255.5	43.405	322.74	-190.69	55.543	372.32	-206.18	705.87	180.51	-88.767	660.99	195.94	-152.14	632.77	193.6	-138.89	733.5	177.13	-105.61	553.41	208.25	-91.551	546.36	334.17	-222.68	420.88	202.19	-199.12	312.18	213.43	-256.2	355.59	214.22	-169.87	382.26	202.46	-312.68	190.75	216.44	-284.59	182.01	299.73	-371.53	184.32	269.38	-370.71	146.51	297.72	-377.99	158.22	234.73	-224.33	81.378	187.2	-196.66	71.542	298.42	-135	67.682	245.32	-381.83	1525.3	373.92	-428.34	1241.6	379.79
236	0.97917	-189.47	1234.9	353.18	-292.38	1464.8	539.05	-330.76	1496.9	205.88	-290.06	1787.4	392.45	-199.42	1023.9	470.8	-203.49	1020.2	239.63	-403.45	1041.9	396.06	-400.74	1042	302.65	-266.71	913.93	542.36	-282.81	907.76	173.62	-296.6	1091.1	515.7	-302.97	1097.6	207.52	-418	1000.5	349.76	-298.46	712.05	518.6	-227.88	612.48	474.94	-296.82	623.73	495.32	-221.03	704.23	500.84	-271.5	516.71	464.62	-303.49	527.43	341.27	-364.02	341.46	466.59	-312.57	273.21	439.35	-375.79	266.18	454.41	-300.88	349.25	452.51	-402.84	103.49	409.19	-375.01	118.69	331.4	-454.89	68.805	359.18	-443.19	42.176	332.8	-450.74	45.645	394.11	NaN	NaN	NaN	-255.43	43.434	322.74	-190.6	55.433	372.41	-199.69	706.34	180.74	-82.044	662.12	196.39	-145.25	633.58	193.93	-132.55	734.36	177.45	-98.059	554.35	208.7	-84.361	547.5	334.55	-212.46	419.01	202.2	-186.46	310.84	213.61	-244.52	352.97	214.21	-158.79	381.57	202.69	-297.29	186.75	216.27	-269.01	178.67	299.66	-356.08	178.8	269.08	-354.28	141.02	297.48	-361.77	152.43	234.5	-206.04	79.626	187.31	-178.3	70.659	298.62	-116.47	68.337	245.61	-376.57	1525.2	373.97	-423.38	1241.6	379.86
237	0.98333	-184.48	1234.6	353.36	-287.21	1464.7	539.11	-325.6	1496.8	205.92	-284.71	1787.2	392.41	-194.89	1023.6	471.17	-198.38	1020.2	239.96	-398.67	1041.7	395.77	-395.77	1041.9	302.36	-262.82	913.75	542.41	-277.27	907.84	173.56	-292.2	1090.8	515.75	-297.8	1097.6	207.54	-413.12	1000.4	349.42	-296.04	712.25	518.65	-226.1	612.17	475.16	-294.92	623.91	495.42	-218.62	703.88	501.15	-270.37	516.61	464.89	-301.88	527.45	341.38	-363.5	341.65	466.67	-312.19	273.32	439.59	-375.42	266.41	454.49	-300.31	349.26	452.73	-402.76	103.74	409.18	-374.58	118.89	331.38	-454.87	68.97	359.06	-443.06	42.267	332.74	-450.68	45.757	393.99	NaN	NaN	NaN	-255.34	43.465	322.74	-190.51	55.328	372.5	-193.3	706.74	180.97	-75.439	663.14	196.84	-138.49	634.3	194.27	-126.31	735.1	177.78	-90.623	555.2	209.14	-77.286	548.54	334.93	-202.26	417.07	202.24	-173.81	309.51	213.82	-232.83	350.31	214.22	-147.76	380.86	202.93	-281.83	182.79	216.13	-253.35	175.38	299.62	-340.5	173.31	268.83	-337.7	135.6	297.29	-345.41	146.71	234.33	-187.75	77.993	187.45	-159.91	69.909	298.84	-97.973	69.128	245.9	-371.31	1525.1	374.01	-418.42	1241.5	379.92
238	0.9875	-179.49	1234.3	353.54	-282.04	1464.5	539.16	-320.41	1496.6	205.96	-279.35	1787	392.35	-190.34	1023.2	471.52	-193.26	1020.1	240.27	-393.89	1041.5	395.47	-390.78	1041.8	302.07	-258.91	913.54	542.46	-271.75	907.87	173.51	-287.79	1090.5	515.79	-292.62	1097.5	207.55	-408.24	1000.2	349.08	-293.6	712.44	518.7	-224.29	611.85	475.39	-293.01	624.08	495.52	-216.21	703.53	501.45	-269.21	516.49	465.17	-300.26	527.46	341.5	-362.97	341.84	466.75	-311.79	273.41	439.82	-375.05	266.64	454.57	-299.73	349.27	452.94	-402.67	103.98	409.17	-374.15	119.1	331.36	-454.86	69.145	358.94	-442.91	42.359	332.68	-450.63	45.868	393.87	NaN	NaN	NaN	-255.25	43.498	322.75	-190.43	55.226	372.59	-187.01	707.05	181.21	-68.951	664.04	197.27	-131.85	634.91	194.61	-120.15	735.75	178.1	-83.306	555.95	209.57	-70.325	549.48	335.31	-192.1	415.09	202.31	-161.19	308.19	214.04	-221.14	347.63	214.27	-136.77	380.12	203.19	-266.3	178.91	216.04	-237.63	172.15	299.61	-324.8	167.88	268.63	-320.97	130.25	297.15	-328.93	141.06	234.22	-169.44	76.487	187.6	-141.52	69.297	299.07	-79.523	70.062	246.18	-366.04	1524.9	374.04	-413.46	1241.4	379.95
239	0.99167	-174.5	1233.9	353.71	-276.88	1464.2	539.21	-315.21	1496.3	205.99	-273.99	1786.7	392.29	-185.79	1022.9	471.85	-188.14	1020	240.57	-389.1	1041.3	395.17	-385.79	1041.6	301.77	-254.99	913.3	542.5	-266.24	907.84	173.46	-283.36	1090.2	515.82	-287.42	1097.3	207.54	-403.34	999.98	348.74	-291.14	712.62	518.76	-222.46	611.51	475.61	-291.07	624.24	495.62	-213.78	703.16	501.74	-268.02	516.37	465.44	-298.63	527.46	341.62	-362.43	342.03	466.84	-311.38	273.49	440.05	-374.65	266.86	454.66	-299.14	349.26	453.15	-402.57	104.21	409.15	-373.72	119.31	331.35	-454.85	69.327	358.82	-442.77	42.454	332.62	-450.58	45.981	393.75	NaN	NaN	NaN	-255.15	43.532	322.76	-190.34	55.127	372.69	-180.82	707.27	181.44	-62.579	664.82	197.69	-125.33	635.42	194.94	-114.09	736.28	178.41	-76.107	556.6	210	-63.475	550.31	335.69	-181.97	413.05	202.4	-148.6	306.88	214.28	-209.45	344.94	214.35	-125.85	379.36	203.46	-250.72	175.1	215.99	-221.83	168.99	299.63	-308.99	162.5	268.49	-304.11	124.98	297.07	-312.33	135.5	234.16	-151.15	75.115	187.77	-123.12	68.83	299.32	-61.129	71.141	246.45	-360.76	1524.7	374.05	-408.49	1241.3	379.97
240	0.99583	-169.5	1233.5	353.89	-271.71	1463.9	539.25	-309.99	1496	206.01	-268.63	1786.4	392.22	-181.23	1022.5	472.16	-183.01	1019.8	240.86	-384.3	1041	394.86	-380.79	1041.3	301.47	-251.04	913.04	542.55	-260.76	907.75	173.4	-278.9	1089.8	515.84	-282.19	1097.1	207.52	-398.43	999.72	348.39	-288.64	712.78	518.82	-220.6	611.17	475.84	-289.1	624.39	495.72	-211.35	702.78	502.01	-266.81	516.24	465.72	-297	527.44	341.76	-361.86	342.23	466.93	-310.96	273.55	440.27	-374.25	267.09	454.75	-298.52	349.24	453.36	-402.47	104.45	409.12	-373.3	119.52	331.34	-454.83	69.517	358.7	-442.62	42.555	332.55	-450.52	46.094	393.63	NaN	NaN	NaN	-255.03	43.568	322.78	-190.26	55.03	372.79	-174.72	707.41	181.67	-56.319	665.49	198.08	-118.93	635.83	195.26	-108.12	736.71	178.71	-69.027	557.14	210.41	-56.735	551.04	336.07	-171.87	410.97	202.53	-136.04	305.59	214.54	-197.77	342.22	214.47	-114.98	378.58	203.74	-235.08	171.37	215.98	-205.98	165.91	299.7	-293.06	157.2	268.42	-287.12	119.82	297.05	-295.62	130.04	234.16	-132.87	73.885	187.96	-104.73	68.514	299.57	-42.801	72.37	246.71	-355.48	1524.4	374.06	-403.53	1241.1	379.98
241	1	-164.49	1233	354.05	-266.54	1463.6	539.28	-304.75	1495.7	206.02	-263.26	1786.1	392.13	-176.65	1022.1	472.46	-177.88	1019.6	241.12	-379.5	1040.7	394.55	-375.77	1041	301.17	-247.07	912.76	542.59	-255.29	907.6	173.35	-274.42	1089.4	515.85	-276.93	1096.9	207.49	-393.51	999.41	348.05	-286.12	712.92	518.88	-218.71	610.81	476.08	-287.11	624.52	495.83	-208.9	702.39	502.26	-265.56	516.1	466.01	-295.34	527.42	341.9	-361.28	342.41	467.04	-310.53	273.6	440.48	-373.83	267.31	454.84	-297.89	349.22	453.57	-402.35	104.67	409.09	-372.89	119.72	331.34	-454.81	69.714	358.59	-442.47	42.665	332.48	-450.47	46.212	393.51	NaN	NaN	NaN	-254.91	43.605	322.8	-190.18	54.934	372.88	-168.72	707.47	181.89	-50.17	666.04	198.46	-112.64	636.13	195.57	-102.23	737.04	178.99	-62.065	557.59	210.82	-50.102	551.65	336.44	-161.81	408.85	202.69	-123.52	304.32	214.81	-186.09	339.5	214.62	-104.18	377.79	204.03	-219.4	167.73	216.03	-190.08	162.92	299.8	-277.03	151.98	268.41	-270.01	114.78	297.09	-278.81	124.69	234.24	-114.62	72.804	188.17	-86.352	68.355	299.83	-24.548	73.751	246.95	-350.18	1524.1	374.06	-398.56	1240.9	379.96
